<?xml version="1.0" standalone="no"?>
<!DOCTYPE svg PUBLIC "-//W3C//DTD SVG 20010904//EN"
 "http://www.w3.org/TR/2001/REC-SVG-20010904/DTD/svg10.dtd">
<svg version="1.0" xmlns="http://www.w3.org/2000/svg"
 width="1083.000000pt" height="1083.000000pt" viewBox="0 0 1083.000000 1083.000000"
 preserveAspectRatio="xMidYMid meet">
<metadata>
Created by potrace 1.11, written by Peter Selinger 2001-2013
</metadata>
<g transform="translate(0.000000,1083.000000) scale(0.100000,-0.100000)"
fill="#000000" stroke="none">
<path d="M4049 10536 c-3 -3 -19 -7 -36 -10 -17 -4 -58 -13 -90 -21 -32 -8
-67 -16 -78 -18 -11 -2 -27 -6 -35 -9 -8 -3 -67 -18 -130 -33 -97 -24 -236
-69 -315 -104 -11 -5 -79 -32 -150 -59 -152 -59 -294 -126 -379 -181 -88 -55
-206 -126 -321 -191 -132 -75 -275 -179 -356 -259 -126 -126 -332 -398 -469
-619 -113 -184 -269 -532 -337 -757 -28 -88 -28 -95 -28 -345 1 -239 2 -259
24 -320 22 -63 47 -107 102 -180 14 -19 35 -62 47 -95 11 -33 43 -103 70 -155
60 -115 68 -140 86 -255 13 -84 20 -118 63 -284 17 -70 55 -116 121 -150 20
-11 72 -53 114 -95 43 -42 82 -76 88 -76 6 0 45 -14 86 -31 52 -22 94 -49 135
-87 91 -84 99 -109 70 -210 -6 -18 -13 -70 -16 -115 -6 -86 -13 -152 -20 -202
-2 -16 -7 -59 -10 -95 -3 -36 -10 -94 -15 -130 -5 -36 -10 -141 -10 -235 0
-93 -4 -176 -9 -184 -5 -8 -28 -16 -51 -17 -55 -4 -75 -23 -102 -103 -22 -63
-23 -79 -23 -371 0 -319 3 -412 16 -470 4 -19 10 -50 14 -67 5 -30 32 -108 55
-158 63 -139 95 -200 136 -253 27 -35 81 -125 119 -200 63 -123 76 -142 130
-185 65 -52 182 -114 230 -120 127 -19 144 -28 175 -94 23 -48 89 -227 89
-241 0 -27 40 -176 72 -275 21 -65 39 -122 39 -128 0 -21 80 -181 113 -228 18
-25 52 -79 76 -119 23 -39 66 -97 96 -128 30 -31 67 -70 83 -88 15 -18 54 -64
87 -102 116 -134 140 -166 193 -251 38 -62 104 -139 240 -281 433 -451 481
-495 712 -649 265 -176 320 -203 460 -222 41 -6 98 -14 125 -18 114 -17 434
-7 525 17 19 5 49 11 65 13 58 9 270 74 350 107 135 57 185 81 275 128 196
103 270 150 390 245 8 7 33 26 55 42 172 128 404 351 469 451 78 121 195 328
313 554 61 115 104 192 118 210 15 19 47 110 75 215 12 44 35 100 50 125 15
25 48 97 73 160 25 63 73 173 107 244 73 154 107 260 134 416 13 73 39 165 53
187 16 24 20 25 82 18 128 -14 217 -6 320 29 85 28 115 65 147 183 14 48 33
117 43 153 11 36 27 110 36 165 9 55 24 125 32 155 13 50 49 127 64 140 9 7
79 160 79 172 0 5 6 24 14 41 7 18 18 45 25 60 20 51 33 324 19 402 -3 17 -11
59 -17 95 -14 78 -39 152 -79 240 -17 36 -42 92 -56 124 -15 33 -37 74 -50 90
-26 34 -173 116 -194 109 -14 -6 -9 28 14 83 16 37 18 88 10 219 -3 55 -8 141
-11 190 -5 88 -8 120 -21 220 -3 28 -8 64 -10 80 -2 17 -5 39 -7 50 -12 54
-19 112 -22 178 -2 40 -6 81 -8 92 -3 11 -8 45 -12 75 -11 82 -62 322 -90 425
-52 186 -55 194 -96 290 -4 11 -24 74 -44 140 -48 159 -49 161 -106 246 -20
30 -54 90 -76 134 -101 206 -139 269 -277 455 -77 105 -214 317 -254 395 -37
73 -142 232 -188 287 -21 26 -55 68 -74 95 -148 203 -279 313 -510 428 -74 37
-161 83 -192 102 -32 19 -72 39 -90 44 -34 10 -612 13 -660 4 -20 -4 -28 -1
-28 9 0 8 -8 17 -17 20 -10 3 -32 20 -50 36 -42 39 -181 139 -213 153 -14 6
-41 21 -60 33 -19 11 -105 45 -190 74 -85 29 -206 72 -268 96 -63 24 -141 51
-175 60 -89 22 -234 69 -290 93 -27 12 -59 21 -71 21 -12 0 -26 4 -32 9 -13
12 -236 97 -266 102 -4 0 -40 10 -80 21 -67 18 -326 37 -339 24z"/>
</g>
</svg>
