<svg width="188" height="114" viewBox="0 0 188 114" fill="none" xmlns="http://www.w3.org/2000/svg">
<path d="M84.1475 114C66.7355 114 52.5457 98.7421 52.5457 79.9489C52.5457 76.5376 55.3341 73.7465 58.7421 73.7465C62.1501 73.7465 64.9385 76.5376 64.9385 79.9489C64.9385 91.8575 73.5516 101.595 84.1475 101.595C94.7435 101.595 103.356 91.9195 103.356 79.9489V34.0511C103.356 22.1425 94.7435 12.4048 84.1475 12.4048C80.7395 12.4048 77.9511 9.61371 77.9511 6.20239C77.9511 2.79108 80.7395 0 84.1475 0C101.56 0 115.749 15.2579 115.749 34.0511V79.9489C115.811 98.6801 101.621 114 84.1475 114Z" fill="#FF8B66"/>
<path d="M84.2098 12.4048C94.6818 12.4048 103.171 20.9021 103.171 31.3841V38.5169C103.171 48.9989 94.6818 57.4962 84.2098 57.4962C73.7378 57.4962 65.2487 48.9989 65.2487 38.5169V31.3841C65.2487 20.9021 73.7378 12.4048 84.2098 12.4048ZM84.2098 0C66.9217 0 52.8558 14.1414 52.8558 31.3841V38.5169C52.8558 55.8215 66.9837 69.901 84.2098 69.901C101.436 69.901 115.564 55.7595 115.564 38.5169V31.3841C115.626 14.0794 101.498 0 84.2098 0Z" fill="#5445FF"/>
<path d="M156.398 114C138.986 114 124.796 98.7421 124.796 79.9489C124.796 76.5376 127.585 73.7465 130.993 73.7465C134.401 73.7465 137.189 76.5376 137.189 79.9489C137.189 91.8575 145.802 101.595 156.398 101.595C166.994 101.595 175.607 91.9195 175.607 79.9489V34.0511C175.607 22.1425 166.994 12.4048 156.398 12.4048C152.99 12.4048 150.202 9.61371 150.202 6.20239C150.202 2.79108 152.99 0 156.398 0C173.81 0 188 15.2579 188 34.0511V79.9489C188 98.6801 173.872 114 156.398 114Z" fill="#FF8B66"/>
<path d="M156.46 12.4048C166.932 12.4048 175.422 20.9021 175.422 31.3841V38.5169C175.422 48.9989 166.932 57.4962 156.46 57.4962C145.989 57.4962 137.499 48.9989 137.499 38.5169V31.3841C137.499 20.9021 145.989 12.4048 156.46 12.4048ZM156.46 0C139.172 0 125.107 14.1414 125.107 31.3841V38.5169C125.107 55.8215 139.234 69.901 156.46 69.901C173.687 69.901 187.814 55.7595 187.814 38.5169V31.3841C187.814 14.0794 173.749 0 156.46 0Z" fill="#5445FF"/>
<path d="M20.4483 85.469C24.7858 85.469 28.5036 89.1284 28.5036 93.5321C28.5036 97.9358 24.8478 101.595 20.4483 101.595C16.0488 101.595 12.3929 97.9358 12.3929 93.5321C12.3929 89.1284 16.0488 85.469 20.4483 85.469ZM20.4483 73.0642C9.23273 73.0642 0 82.2438 0 93.5321C0 104.82 9.17077 114 20.4483 114C31.7259 114 40.8965 104.82 40.8965 93.5321C40.8965 82.2438 31.6639 73.0642 20.4483 73.0642Z" fill="#5445FF"/>
</svg>
